<?xml version="1.0" encoding="UTF-8"?>
<svg xmlns="http://www.w3.org/2000/svg" width="1920" height="720" viewBox="0 0 1920 720">
  <defs>
    <linearGradient id="bg" x1="0" y1="0" x2="0" y2="1">
      <stop offset="0" stop-color="#0B1220"/>
      <stop offset="1" stop-color="#0A0F1A"/>
    </linearGradient>
    <filter id="glow" x="-20%" y="-20%" width="140%" height="140%">
      <feGaussianBlur stdDeviation="8" result="b"/>
      <feMerge><feMergeNode in="b"/><feMergeNode in="SourceGraphic"/></feMerge>
    </filter>
  </defs>
  <rect width="1920" height="720" fill="url(#bg)"/>
  <!-- decorative waves -->
  <path d="M0,520 C320,480 640,560 960,540 1280,520 1600,460 1920,520" fill="none" stroke="#0EE08F" stroke-opacity="0.25" stroke-width="3"/>
  <path d="M0,610 C320,570 640,650 960,630 1280,610 1600,550 1920,610" fill="none" stroke="#0EE08F" stroke-opacity="0.18" stroke-width="3"/>
  <path d="M0,660 C320,640 640,700 960,680 1280,660 1600,620 1920,660" fill="none" stroke="#0EE08F" stroke-opacity="0.12" stroke-width="3"/>
  <!-- brand cluster -->
  <g transform="translate(220,140)">
    <circle cx="100" cy="100" r="92" fill="none" stroke="#33E68A" stroke-width="8"/>
    <path d="M28,138c30-12 60-12 86,26" fill="none" stroke="#33E68A" stroke-width="8" stroke-linecap="round"/>
    <path d="M100,164c28-38 58-38 86-26" fill="none" stroke="#33E68A" stroke-width="8" stroke-linecap="round"/>
    <path d="M100,130v-32l-24-16" fill="none" stroke="#33E68A" stroke-width="8" stroke-linecap="round"/>
    <path d="M100,98l26-18" fill="none" stroke="#33E68A" stroke-width="8" stroke-linecap="round"/>
    <circle cx="72" cy="84" r="10" fill="none" stroke="#33E68A" stroke-width="8"/>
    <circle cx="126" cy="76" r="10" fill="none" stroke="#33E68A" stroke-width="8"/>
    <circle cx="144" cy="106" r="10" fill="none" stroke="#33E68A" stroke-width="8"/>
  </g>
  <g transform="translate(420,180)" filter="url(#glow)">
    <text x="0" y="140" fill="#EAF2F1" font-family="Inter, Poppins, system-ui, sans-serif" font-weight="800" font-size="120">TerraSynapse</text>
    <text x="6" y="188" fill="#A8B7B5" font-family="Inter, Poppins, system-ui, sans-serif" font-weight="500" font-size="28">Plataforma Enterprise de Inteligência Agrícola</text>
  </g>
</svg>
